SplineFontDB: 3.0
FontName: ZenianRegular
FullName: ZenianRegular
FamilyName: Zenian
Weight: Regular
Copyright: Copyright (c) 2019, Deep
UComments: "2019-7-5: Created with FontForge (http://fontforge.org)"
Version: 001.000
ItalicAngle: 0
UnderlinePosition: -25
UnderlineWidth: 12
Ascent: 128
Descent: 128
InvalidEm: 0
LayerCount: 2
Layer: 0 1 "Back" 1
Layer: 1 1 "Fore" 0
XUID: [1021 821 762505729 13620]
FSType: 0
OS2Version: 0
OS2_WeightWidthSlopeOnly: 0
OS2_UseTypoMetrics: 1
CreationTime: 1562357584
ModificationTime: 1562711589
PfmFamily: 17
TTFWeight: 400
TTFWidth: 5
LineGap: 23
VLineGap: 0
OS2TypoAscent: 0
OS2TypoAOffset: 1
OS2TypoDescent: 0
OS2TypoDOffset: 1
OS2TypoLinegap: 23
OS2WinAscent: 0
OS2WinAOffset: 1
OS2WinDescent: 0
OS2WinDOffset: 1
HheadAscent: 0
HheadAOffset: 1
HheadDescent: 0
HheadDOffset: 1
OS2Vendor: 'PfEd'
MarkAttachClasses: 1
DEI: 91125
LangName: 1033
Encoding: Custom
UnicodeInterp: none
NameList: AGL For New Fonts
DisplaySize: -48
AntiAlias: 1
FitToEm: 0
WinInfo: 0 38 12
BeginPrivate: 0
EndPrivate
BeginChars: 22 22

StartChar: i
Encoding: 0 105 0
Width: 254
VWidth: 0
Flags: MW
LayerCount: 2
Fore
SplineSet
52 0 m 25,0,-1
 27 -25 l 25,1,-1
 2 0 l 25,2,-1
 27 25 l 25,3,-1
 52 0 l 25,0,-1
127 25 m 25,4,-1
 152 0 l 25,5,-1
 127 -25 l 25,6,-1
 102 0 l 25,7,-1
 127 25 l 25,4,-1
227 25 m 25,8,-1
 252 0 l 1,9,-1
 227 -25 l 1,10,-1
 202 0 l 1,11,-1
 227 25 l 25,8,-1
EndSplineSet
EndChar

StartChar: y
Encoding: 1 121 1
Width: 454
VWidth: 0
Flags: MW
LayerCount: 2
Fore
SplineSet
27 25 m 25,0,-1
 52 0 l 25,1,-1
 27 -25 l 25,2,-1
 2 0 l 25,3,-1
 27 25 l 25,0,-1
77 15 m 25,4,-1
 177 15 l 25,5,-1
 177 -15 l 29,6,-1
 77 -15 l 25,7,-1
 77 15 l 25,4,-1
227 25 m 25,8,-1
 252 0 l 25,9,-1
 227 -25 l 25,10,-1
 202 0 l 25,11,-1
 227 25 l 25,8,-1
377 15 m 25,12,-1
 377 -15 l 1,13,-1
 277 -15 l 1,14,-1
 277 15 l 1,15,-1
 377 15 l 25,12,-1
427 25 m 25,16,-1
 452 0 l 1,17,-1
 427 -25 l 1,18,-1
 402 0 l 1,19,-1
 427 25 l 25,16,-1
EndSplineSet
EndChar

StartChar: e
Encoding: 2 101 2
Width: 254
VWidth: 0
Flags: MW
LayerCount: 2
Fore
SplineSet
42 50 m 29,0,-1
 42 -50 l 5,1,-1
 12 -50 l 5,2,-1
 12 50 l 5,3,-1
 42 50 l 29,0,-1
27 125 m 29,4,-1
 52 100 l 5,5,-1
 27 75 l 5,6,-1
 2 100 l 5,7,-1
 27 125 l 29,4,-1
127 25 m 29,8,-1
 152 0 l 29,9,-1
 127 -25 l 29,10,-1
 102 0 l 29,11,-1
 127 25 l 29,8,-1
212 50 m 29,12,-1
 242 50 l 5,13,-1
 242 -50 l 5,14,-1
 212 -50 l 5,15,-1
 212 50 l 29,12,-1
227 125 m 29,16,-1
 252 100 l 5,17,-1
 227 75 l 5,18,-1
 202 100 l 5,19,-1
 227 125 l 29,16,-1
EndSplineSet
EndChar

StartChar: oslash
Encoding: 3 248 3
Width: 254
VWidth: 0
Flags: MW
LayerCount: 2
Fore
SplineSet
27 100 m 29,0,-1
 52 75 l 29,1,-1
 27 50 l 29,2,-1
 2 75 l 29,3,-1
 27 100 l 29,0,-1
127 25 m 29,4,-1
 152 0 l 29,5,-1
 127 -25 l 29,6,-1
 102 0 l 29,7,-1
 127 25 l 29,4,-1
177 90 m 29,8,-1
 177 60 l 5,9,-1
 77 60 l 5,10,-1
 77 90 l 5,11,-1
 177 90 l 29,8,-1
227 100 m 29,12,-1
 252 75 l 5,13,-1
 227 50 l 5,14,-1
 202 75 l 5,15,-1
 227 100 l 29,12,-1
EndSplineSet
EndChar

StartChar: uni025B
Encoding: 4 603 4
Width: 254
VWidth: 0
Flags: MW
LayerCount: 2
Fore
SplineSet
42 -50 m 25,0,-1
 12 -50 l 1,1,-1
 12 50 l 1,2,-1
 42 50 l 1,3,-1
 42 -50 l 25,0,-1
27 -125 m 25,4,-1
 2 -100 l 1,5,-1
 27 -75 l 1,6,-1
 52 -100 l 5,7,-1
 27 -125 l 25,4,-1
127 -25 m 25,8,-1
 102 0 l 25,9,-1
 127 25 l 25,10,-1
 152 0 l 25,11,-1
 127 -25 l 25,8,-1
212 -50 m 25,12,-1
 212 50 l 1,13,-1
 242 50 l 1,14,-1
 242 -50 l 1,15,-1
 212 -50 l 25,12,-1
227 -125 m 25,16,-1
 202 -100 l 1,17,-1
 227 -75 l 1,18,-1
 252 -100 l 1,19,-1
 227 -125 l 25,16,-1
EndSplineSet
EndChar

StartChar: oe
Encoding: 5 339 5
Width: 254
VWidth: 0
Flags: MW
LayerCount: 2
Fore
SplineSet
27 -100 m 29,0,-1
 2 -75 l 29,1,-1
 27 -50 l 29,2,-1
 52 -75 l 29,3,-1
 27 -100 l 29,0,-1
127 -25 m 29,4,-1
 102 0 l 29,5,-1
 127 25 l 29,6,-1
 152 0 l 29,7,-1
 127 -25 l 29,4,-1
177 -90 m 29,8,-1
 77 -90 l 5,9,-1
 77 -60 l 5,10,-1
 177 -60 l 5,11,-1
 177 -90 l 29,8,-1
227 -100 m 29,12,-1
 202 -75 l 5,13,-1
 227 -50 l 5,14,-1
 252 -75 l 5,15,-1
 227 -100 l 29,12,-1
EndSplineSet
EndChar

StartChar: a
Encoding: 6 97 6
Width: 54
VWidth: 0
Flags: MW
LayerCount: 2
Fore
SplineSet
27 -75 m 29,0,-1
 52 -100 l 29,1,-1
 27 -125 l 29,2,-1
 2 -100 l 29,3,-1
 27 -75 l 29,0,-1
27 25 m 29,4,-1
 52 0 l 29,5,-1
 27 -25 l 29,6,-1
 2 0 l 29,7,-1
 27 25 l 29,4,-1
27 125 m 29,8,-1
 52 100 l 5,9,-1
 27 75 l 5,10,-1
 2 100 l 5,11,-1
 27 125 l 29,8,-1
EndSplineSet
EndChar

StartChar: uni0276
Encoding: 7 630 7
Width: 54
VWidth: 0
Flags: MW
LayerCount: 2
Fore
SplineSet
27 -175 m 25,0,-1
 52 -200 l 25,1,-1
 27 -225 l 25,2,-1
 2 -200 l 25,3,-1
 27 -175 l 25,0,-1
27 225 m 25,4,-1
 52 200 l 25,5,-1
 27 175 l 25,6,-1
 2 200 l 25,7,-1
 27 225 l 25,4,-1
12 -50 m 25,8,-1
 42 -50 l 25,9,-1
 42 -150 l 25,10,-1
 12 -150 l 29,11,-1
 12 -50 l 25,8,-1
27 25 m 25,12,-1
 52 0 l 25,13,-1
 27 -25 l 25,14,-1
 2 0 l 25,15,-1
 27 25 l 25,12,-1
12 150 m 25,16,-1
 42 150 l 1,17,-1
 42 50 l 1,18,-1
 12 50 l 1,19,-1
 12 150 l 25,16,-1
EndSplineSet
EndChar

StartChar: t
Encoding: 8 116 8
Width: 504
VWidth: 0
Flags: MW
LayerCount: 2
Fore
SplineSet
252 25 m 25,0,-1
 277 0 l 25,1,-1
 252 -25 l 25,2,-1
 227 0 l 25,3,-1
 252 25 l 25,0,-1
202 25 m 1,4,-1
 202 0 l 24,5,-1
 2 -125 l 1,6,-1
 2 -100 l 1,7,-1
 202 25 l 1,4,-1
302 25 m 5,8,-1
 502 -100 l 5,9,-1
 502 -125 l 5,10,-1
 302 0 l 28,11,-1
 302 25 l 5,8,-1
EndSplineSet
EndChar

StartChar: d
Encoding: 9 100 9
Width: 504
VWidth: 0
Flags: MW
LayerCount: 2
Fore
SplineSet
252 -25 m 29,0,-1
 227 0 l 29,1,-1
 252 25 l 29,2,-1
 277 0 l 29,3,-1
 252 -25 l 29,0,-1
202 -25 m 1,4,-1
 2 100 l 1,5,-1
 2 125 l 1,6,-1
 202 0 l 24,7,-1
 202 -25 l 1,4,-1
302 -25 m 1,8,-1
 302 0 l 24,9,-1
 502 125 l 1,10,-1
 502 100 l 1,11,-1
 302 -25 l 1,8,-1
EndSplineSet
EndChar

StartChar: uni0288
Encoding: 10 648 10
Width: 504
VWidth: 0
Flags: MW
LayerCount: 2
Fore
SplineSet
202 25 m 5,0,-1
 202 0 l 5,1,-1
 102 -125 l 5,2,-1
 2 0 l 5,3,-1
 2 25 l 5,4,-1
 102 -100 l 5,5,-1
 202 25 l 5,0,-1
252 -25 m 29,6,-1
 227 0 l 29,7,-1
 252 25 l 29,8,-1
 277 0 l 29,9,-1
 252 -25 l 29,6,-1
302 25 m 5,10,-1
 402 -100 l 5,11,-1
 502 25 l 5,12,-1
 502 0 l 5,13,-1
 402 -125 l 5,14,-1
 302 0 l 5,15,-1
 302 25 l 5,10,-1
EndSplineSet
EndChar

StartChar: uni0256
Encoding: 11 598 11
Width: 504
VWidth: 0
Flags: MW
LayerCount: 2
Fore
SplineSet
202 -25 m 1,0,-1
 102 100 l 1,1,-1
 2 -25 l 1,2,-1
 2 0 l 1,3,-1
 102 125 l 1,4,-1
 202 0 l 1,5,-1
 202 -25 l 1,0,-1
252 25 m 29,6,-1
 277 0 l 29,7,-1
 252 -25 l 29,8,-1
 227 0 l 29,9,-1
 252 25 l 29,6,-1
302 -25 m 1,10,-1
 302 0 l 1,11,-1
 402 125 l 1,12,-1
 502 0 l 1,13,-1
 502 -25 l 1,14,-1
 402 100 l 1,15,-1
 302 -25 l 1,10,-1
EndSplineSet
EndChar

StartChar: theta
Encoding: 12 952 12
Width: 204
VWidth: 0
Flags: MW
LayerCount: 2
Fore
SplineSet
102 -50 m 260,0,1
 152 -50 152 -50 202 -75 c 285,2,-1
 202 -100 l 277,3,4
 152 -75 152 -75 102 -75 c 260,5,6
 52 -75 52 -75 2 -100 c 269,7,-1
 2 -75 l 277,8,9
 52 -50 52 -50 102 -50 c 260,0,1
102 50 m 260,10,11
 52 50 52 50 2 75 c 269,12,-1
 2 100 l 277,13,14
 52 75 52 75 102 75 c 260,15,16
 152 75 152 75 202 100 c 269,17,-1
 202 75 l 285,18,19
 152 50 152 50 102 50 c 260,10,11
102 25 m 29,20,-1
 127 0 l 29,21,-1
 102 -25 l 29,22,-1
 77 0 l 29,23,-1
 102 25 l 29,20,-1
EndSplineSet
EndChar

StartChar: eth
Encoding: 13 240 13
Width: 204
VWidth: 0
Flags: MW
LayerCount: 2
Fore
SplineSet
102 -100 m 260,0,1
 152 -100 152 -100 202 -75 c 285,2,-1
 202 -100 l 277,3,4
 152 -125 152 -125 102 -125 c 260,5,6
 52 -125 52 -125 2 -100 c 269,7,-1
 2 -75 l 277,8,9
 52 -100 52 -100 102 -100 c 260,0,1
102 25 m 29,10,-1
 127 0 l 29,11,-1
 102 -25 l 29,12,-1
 77 0 l 29,13,-1
 102 25 l 29,10,-1
102 100 m 260,14,15
 52 100 52 100 2 75 c 269,16,-1
 2 100 l 277,17,18
 52 125 52 125 102 125 c 260,19,20
 152 125 152 125 202 100 c 269,21,-1
 202 75 l 285,22,23
 152 100 152 100 102 100 c 260,14,15
EndSplineSet
EndChar

StartChar: s
Encoding: 14 115 14
Width: 204
VWidth: 0
Flags: MW
LayerCount: 2
Fore
SplineSet
152 0 m 260,0,1
 152 50 152 50 177 100 c 269,2,-1
 202 100 l 277,3,4
 177 50 177 50 177 0 c 260,5,6
 177 -50 177 -50 202 -100 c 269,7,-1
 177 -100 l 285,8,9
 152 -50 152 -50 152 0 c 260,0,1
52 0 m 260,10,11
 52 -50 52 -50 27 -100 c 285,12,-1
 2 -100 l 277,13,14
 27 -50 27 -50 27 0 c 260,15,16
 27 50 27 50 2 100 c 269,17,-1
 27 100 l 277,18,19
 52 50 52 50 52 0 c 260,10,11
77 0 m 29,20,-1
 102 25 l 29,21,-1
 127 0 l 29,22,-1
 102 -25 l 29,23,-1
 77 0 l 29,20,-1
EndSplineSet
EndChar

StartChar: z
Encoding: 15 122 15
Width: 254
VWidth: 0
Flags: W
LayerCount: 2
Fore
SplineSet
227 0 m 256,0,1
 227 50 227 50 202 100 c 265,2,-1
 227 100 l 273,3,4
 252 50 252 50 252 0 c 256,5,6
 252 -50 252 -50 227 -100 c 265,7,-1
 202 -100 l 281,8,9
 227 -50 227 -50 227 0 c 256,0,1
102 0 m 29,10,-1
 127 25 l 29,11,-1
 152 0 l 29,12,-1
 127 -25 l 29,13,-1
 102 0 l 29,10,-1
27 0 m 256,14,15
 27 -50 27 -50 52 -100 c 281,16,-1
 27 -100 l 273,17,18
 2 -50 2 -50 2 0 c 256,19,20
 2 50 2 50 27 100 c 265,21,-1
 52 100 l 273,22,23
 27 50 27 50 27 0 c 256,14,15
EndSplineSet
EndChar

StartChar: esh
Encoding: 16 643 16
Width: 204
VWidth: 0
Flags: W
LayerCount: 2
Fore
SplineSet
77 100 m 277,0,1
 80 58 80 58 62 40 c 260,2,3
 44 22 44 22 2 25 c 269,4,-1
 2 50 l 277,5,6
 29 37 29 37 47 55 c 260,7,8
 65 73 65 73 52 100 c 269,9,-1
 77 100 l 277,0,1
127 100 m 269,10,-1
 152 100 l 277,11,12
 139 73 139 73 157 55 c 260,13,14
 175 37 175 37 202 50 c 269,15,-1
 202 25 l 277,16,17
 160 22 160 22 142 40 c 260,18,19
 124 58 124 58 127 100 c 269,10,-1
77 0 m 29,20,-1
 102 25 l 29,21,-1
 127 0 l 29,22,-1
 102 -25 l 29,23,-1
 77 0 l 29,20,-1
EndSplineSet
EndChar

StartChar: ezh
Encoding: 17 658 17
Width: 204
VWidth: 0
Flags: W
LayerCount: 2
Fore
SplineSet
77 100 m 269,0,-1
 77 75 l 277,1,2
 50 88 50 88 32 70 c 260,3,4
 14 52 14 52 27 25 c 269,5,-1
 2 25 l 277,6,7
 -1 67 -1 67 17 85 c 260,8,9
 35 103 35 103 77 100 c 269,0,-1
127 100 m 277,10,11
 169 103 169 103 187 85 c 260,12,13
 205 67 205 67 202 25 c 269,14,-1
 177 25 l 277,15,16
 190 52 190 52 172 70 c 260,17,18
 154 88 154 88 127 75 c 269,19,-1
 127 100 l 277,10,11
77 0 m 29,20,-1
 102 25 l 29,21,-1
 127 0 l 29,22,-1
 102 -25 l 29,23,-1
 77 0 l 29,20,-1
EndSplineSet
EndChar

StartChar: uni0282
Encoding: 18 642 18
Width: 204
VWidth: 0
Flags: W
LayerCount: 2
Fore
SplineSet
77 -100 m 269,0,-1
 52 -100 l 277,1,2
 65 -73 65 -73 47 -55 c 260,3,4
 29 -37 29 -37 2 -50 c 269,5,-1
 2 -25 l 277,6,7
 44 -22 44 -22 62 -40 c 260,8,9
 80 -58 80 -58 77 -100 c 269,0,-1
127 -100 m 277,10,11
 124 -58 124 -58 142 -40 c 260,12,13
 160 -22 160 -22 202 -25 c 269,14,-1
 202 -50 l 277,15,16
 175 -37 175 -37 157 -55 c 260,17,18
 139 -73 139 -73 152 -100 c 269,19,-1
 127 -100 l 277,10,11
77 0 m 29,20,-1
 102 25 l 29,21,-1
 127 0 l 29,22,-1
 102 -25 l 29,23,-1
 77 0 l 29,20,-1
EndSplineSet
EndChar

StartChar: uni0290
Encoding: 19 656 19
Width: 204
VWidth: 0
Flags: W
LayerCount: 2
Fore
SplineSet
77 -100 m 273,0,1
 35 -103 35 -103 17 -85 c 256,2,3
 -1 -67 -1 -67 2 -25 c 265,4,-1
 27 -25 l 273,5,6
 14 -52 14 -52 32 -70 c 256,7,8
 50 -88 50 -88 77 -75 c 265,9,-1
 77 -100 l 273,0,1
127 -100 m 265,10,-1
 127 -75 l 273,11,12
 154 -88 154 -88 172 -70 c 256,13,14
 190 -52 190 -52 177 -25 c 265,15,-1
 202 -25 l 273,16,17
 205 -67 205 -67 187 -85 c 256,18,19
 169 -103 169 -103 127 -100 c 265,10,-1
77 0 m 29,20,-1
 102 25 l 29,21,-1
 127 0 l 29,22,-1
 102 -25 l 29,23,-1
 77 0 l 29,20,-1
EndSplineSet
EndChar

StartChar: uni028B
Encoding: 20 651 20
Width: 504
VWidth: 0
Flags: W
LayerCount: 2
Fore
SplineSet
202 125 m 5,0,-1
 202 100 l 28,1,-1
 2 -25 l 5,2,-1
 2 0 l 5,3,-1
 202 125 l 5,0,-1
302 125 m 5,4,-1
 502 0 l 5,5,-1
 502 -25 l 5,6,-1
 302 100 l 28,7,-1
 302 125 l 5,4,-1
227 0 m 29,8,-1
 252 25 l 29,9,-1
 277 0 l 29,10,-1
 252 -25 l 29,11,-1
 227 0 l 29,8,-1
EndSplineSet
EndChar

StartChar: j
Encoding: 21 106 21
Width: 504
VWidth: 0
Flags: W
LayerCount: 2
Fore
SplineSet
202 -125 m 5,0,-1
 2 0 l 5,1,-1
 2 25 l 5,2,-1
 202 -100 l 28,3,-1
 202 -125 l 5,0,-1
302 -125 m 5,4,-1
 302 -100 l 28,5,-1
 502 25 l 5,6,-1
 502 0 l 5,7,-1
 302 -125 l 5,4,-1
227 0 m 29,8,-1
 252 25 l 29,9,-1
 277 0 l 29,10,-1
 252 -25 l 29,11,-1
 227 0 l 29,8,-1
EndSplineSet
EndChar
